<svg width="100" height="126" viewBox="0 0 100 126" fill="none" xmlns="http://www.w3.org/2000/svg">
<path d="M90.1339 74.1208H91.6894V72.5653V64.1653C91.6894 62.7907 90.5751 61.6764 89.2005 61.6764H10.8005C9.42595 61.6764 8.31163 62.7907 8.31163 64.1653V72.5653V74.1208H9.86719H90.1339Z" stroke="#F3F7ED" stroke-width="3.11111"/>
<path d="M25.1113 103.676V119.854C25.1113 120.37 25.5292 120.787 26.0447 120.787H73.9558C74.4712 120.787 74.8891 120.37 74.8891 119.854V104.676" stroke="#F3F7ED" stroke-width="3.11111"/>
<mask id="path-3-inside-1_73_567" fill="white">
<path d="M92 72.5652C92 78.0807 90.9136 83.5422 88.8029 88.6379C86.6922 93.7336 83.5985 98.3636 79.6985 102.264C75.7984 106.164 71.1684 109.257 66.0727 111.368C60.977 113.479 55.5155 114.565 50 114.565C44.4845 114.565 39.023 113.479 33.9273 111.368C28.8316 109.257 24.2016 106.164 20.3015 102.264C16.4015 98.3636 13.3078 93.7336 11.1971 88.6379C9.08636 83.5422 8 78.0807 8 72.5652L50 72.5652H92Z"/>
</mask>
<path d="M92 72.5652C92 78.0807 90.9136 83.5422 88.8029 88.6379C86.6922 93.7336 83.5985 98.3636 79.6985 102.264C75.7984 106.164 71.1684 109.257 66.0727 111.368C60.977 113.479 55.5155 114.565 50 114.565C44.4845 114.565 39.023 113.479 33.9273 111.368C28.8316 109.257 24.2016 106.164 20.3015 102.264C16.4015 98.3636 13.3078 93.7336 11.1971 88.6379C9.08636 83.5422 8 78.0807 8 72.5652L50 72.5652H92Z" stroke="#F3F7ED" stroke-width="6.22222" mask="url(#path-3-inside-1_73_567)"/>
<g clip-path="url(#clip0_73_567)">
<path d="M40.4138 16.6295C40.2074 16.4497 40.2983 16.2327 40.3425 16.0189C40.0592 16.0712 39.9404 15.7219 39.6667 15.7461C39.6479 15.7184 39.6395 15.6849 39.6429 15.6515C39.6533 15.621 39.7071 15.5734 39.7195 15.5793C39.9543 15.6901 40.3212 15.6278 40.3384 16.0295C40.5423 15.8735 40.5286 15.6943 40.3094 15.6133C39.9661 15.4863 39.7082 15.1108 39.2696 15.2535C39.0962 14.7539 38.6684 15.2283 38.5344 15.1108C38.1229 14.7501 37.9241 15.2684 37.6149 15.2515C37.243 15.2312 37.1161 15.5226 36.9903 15.813C37.0035 15.6782 37.0829 15.5404 36.9668 15.4694C36.8415 15.3927 36.735 15.5299 36.6973 15.6193C36.6107 15.824 36.4952 15.7921 36.3541 15.6745C36.3234 15.8781 36.4702 16.0267 36.3852 16.2904C36.3338 16.0451 36.2996 15.817 36.0699 15.8822C35.9262 15.9229 35.6928 16.0331 35.9135 16.2676C35.9188 16.2731 35.8931 16.3238 35.8842 16.3232C35.444 16.2945 35.5607 16.8369 35.1978 16.961C34.9135 17.0585 34.9107 17.5064 34.8346 17.7859C34.515 18.9564 34.8188 20.001 35.495 21.007C35.7496 21.3858 35.933 21.8343 36.2327 22.1996C36.6091 22.6584 37.113 22.946 37.6143 23.2572C38.1799 23.6084 38.7855 23.8136 39.409 24.004C39.9224 24.1608 40.4531 24.1883 40.9828 24.1786C41.3133 24.1727 41.3298 24.0384 41.0803 23.5924C41.3456 23.5911 41.5633 23.7118 41.5241 23.9102C41.4702 24.1827 41.6404 24.0928 41.7398 24.0832C41.8889 24.0686 42.0163 23.9746 42.1839 23.9773C42.3182 23.9794 42.3336 23.8311 42.3186 23.6997C42.2942 23.4855 42.302 23.4846 42.5161 23.2845C42.383 23.5347 42.6355 23.6161 42.6522 23.8064C42.6606 23.9012 42.8787 23.8563 42.9783 23.7462C43.4555 23.2195 44.0205 23.0085 44.7151 23.2527C44.7658 23.2654 44.8179 23.2719 44.8703 23.2719C44.907 23.275 44.953 23.2586 44.955 23.3299C44.911 23.4742 44.8088 23.4203 44.7054 23.3971C44.4751 23.3455 44.2994 23.5205 44.4145 23.7216C44.6771 24.1818 44.6808 24.7741 45.1923 25.1216C45.3215 25.2094 45.2731 25.5576 45.2982 25.7871C45.3085 25.8815 45.2862 25.9884 45.4429 25.9252C45.5311 25.8895 45.5833 25.9327 45.5448 26.0111C45.3986 26.3089 45.5411 26.4922 45.7279 26.7197C45.8485 26.8667 45.7507 27.132 45.9015 27.3412C45.9472 27.4142 46.0071 27.4774 46.0777 27.5272C46.1483 27.577 46.2283 27.6123 46.3131 27.6312C46.698 27.7233 46.697 27.727 46.6045 28.1488C46.3812 28.1269 46.2281 28.0238 46.1853 27.7833C46.2318 28.1385 46.1141 28.5651 46.6602 28.6483C46.7853 28.6673 46.6727 28.7468 46.6366 28.8094C46.5794 28.8977 46.5477 28.9997 46.5451 29.1042C46.5425 29.2086 46.569 29.3116 46.6216 29.4016C46.888 29.8613 46.995 30.403 47.1355 30.8854C47.282 31.4226 47.4009 31.9671 47.4917 32.5167C47.8232 34.3589 48.2391 36.1985 48.2092 38.0791C48.1688 40.5924 48.0188 43.1033 46.9349 45.4579C46.6657 46.0426 46.4322 46.646 46.3964 47.2991C46.3872 47.466 46.354 47.653 46.5479 47.7481C46.758 47.8512 46.771 47.5848 46.9135 47.5327C47.0119 47.4967 47.0901 47.3533 47.1157 47.213C47.2352 46.5608 47.5119 45.9621 47.8122 45.377C48.7293 43.5917 49.0795 41.6696 49.3525 39.7126C49.6761 37.4555 49.6394 35.1651 49.244 32.9255C49.1106 32.1782 49.1275 31.3965 48.8399 30.6838C48.6927 30.3191 48.5166 29.9604 48.443 29.5786C48.3696 29.1781 48.266 28.7838 48.1332 28.399C48.0903 28.2779 48.0736 28.1442 47.9546 28.0606C47.8742 28.0042 47.7002 27.9695 47.9202 27.8393C47.9959 27.7942 47.8855 27.7188 47.8258 27.6701C47.6981 27.5657 47.5405 27.4679 47.6655 27.2609C47.6744 27.2379 47.6789 27.2133 47.6786 27.1887C47.2426 27.1158 47.5835 26.872 47.5895 26.7195C47.6106 26.1786 47.2516 26.5193 47.0639 26.5034C47.1078 26.1342 47.3938 25.7966 47.0872 25.4311C46.9297 25.4262 47.0347 25.5827 46.9853 25.6693C46.8367 25.5238 46.7427 25.3967 46.9793 25.2456C47.0769 25.1832 47.0642 25.0914 46.9767 25.0165C46.706 24.785 46.7059 24.7851 46.7737 24.495C46.6642 24.4486 46.5773 24.5336 46.4808 24.5476C46.4477 24.5525 46.3839 24.5432 46.3823 24.5329C46.3696 24.4844 46.3727 24.433 46.3912 24.3861C46.5721 24.0948 46.4948 23.4474 46.2438 23.2098C46.2346 23.2011 46.2128 23.1989 46.2107 23.1903C46.1379 22.8867 45.8579 22.6909 45.7622 22.4238C45.6072 21.991 46.0018 21.6956 46.1992 21.3598C46.269 21.2409 46.4106 21.1653 46.5067 21.0584C47.7555 19.6694 49.4353 19.3315 51.1458 20.0756C52.0856 20.4845 52.8998 21.0885 53.7726 21.6007C54.298 21.9088 54.8644 22.1564 55.3178 22.577C55.4008 22.6539 55.51 22.6557 55.6158 22.6564C55.6944 22.657 55.789 22.6605 55.8198 22.5729C55.8506 22.4852 55.7606 22.4267 55.7082 22.3862C55.4205 22.1647 55.1161 21.9648 54.831 21.7406C54.2597 21.2912 53.6186 20.9452 53.0395 20.4964C52.4197 20.016 51.7189 19.559 50.912 19.3583C50.8849 19.3516 50.8675 19.3073 50.8133 19.2404C51.083 19.2361 51.3491 19.2967 51.5889 19.4171C52.1132 19.6697 52.6176 19.9606 53.0979 20.2873C53.5344 20.5953 53.9399 20.985 54.4979 21.1015C54.6555 21.1343 54.7124 21.3003 54.8045 21.3938C55.1216 21.7157 55.6086 21.803 55.8678 22.2002C55.9473 22.322 56.1073 22.3147 56.2143 22.1337C56.6074 21.4684 56.6262 21.1982 56.1563 20.6298C55.3301 19.6307 54.2952 18.8818 53.1841 18.226C53.0303 18.1389 52.8865 18.0356 52.7553 17.9178C53.5155 18.1019 54.0708 18.6407 54.768 19.0898C54.0237 17.8426 50.9908 16.8807 50.2575 17.5964C50.0578 17.3283 49.4995 17.2909 49.2655 17.5499C49.1915 17.6318 49.1399 17.7302 49.0234 17.7073C48.4069 17.5842 47.9269 17.9191 47.5127 18.2606C47.0655 18.6288 46.45 18.7697 46.1276 19.2946C45.8457 19.7537 45.3962 20.0738 45.0902 20.5126C44.9959 20.6481 44.8888 20.7225 44.7322 20.6408C44.5691 20.5558 44.5659 20.4189 44.6654 20.283C44.7639 20.1485 44.6715 20.0368 44.6372 19.9221C44.6049 19.8137 44.4869 19.8219 44.4833 19.912C44.4683 20.2922 44.2755 19.9077 44.2037 20.0076C44.44 19.6889 44.385 19.4214 44.0265 19.1811C44.0058 19.1682 43.9894 19.1496 43.9792 19.1276C43.969 19.1056 43.9654 19.0811 43.9689 19.0571C43.9618 18.8391 43.9839 18.5703 43.6389 18.847C43.5711 18.9015 43.4121 18.8692 43.4917 18.7507C43.6975 18.4443 43.4041 18.2665 43.3052 18.0935C43.1297 17.7864 42.8336 17.5457 42.578 17.2876C42.5078 17.2169 42.3764 17.1441 42.2966 17.2146C42.2213 17.2817 42.3085 17.3728 42.3903 17.4202C42.4184 17.5848 42.5757 17.7146 42.5252 17.9032C42.4296 18.1517 42.5122 18.3755 42.6276 18.6052C42.3444 18.3316 41.9501 18.231 41.7167 17.9008C41.5763 17.7144 41.3938 17.5633 41.1836 17.4594C40.6755 17.2009 40.2893 16.7765 39.7948 16.5028C39.7474 16.4766 39.6602 16.4239 39.7131 16.355C39.7235 16.3388 39.7373 16.3251 39.7537 16.3148C39.77 16.3045 39.7884 16.2978 39.8075 16.2954C39.8266 16.2929 39.8461 16.2947 39.8644 16.3005C39.8827 16.3063 39.8994 16.3161 39.9134 16.3291C40.0692 16.4438 40.2456 16.5311 40.4138 16.6295ZM43.1663 19.2254C43.0852 19.2047 42.9464 19.2303 42.9599 19.1112C42.9743 18.9823 43.0497 18.8584 43.109 18.7373C43.1138 18.7275 43.204 18.7486 43.2478 18.7694C43.3044 18.7961 43.2336 19.1286 43.1544 19.2218C43.2832 19.3078 43.4547 19.3428 43.4908 19.5347C43.5093 19.6343 43.5109 19.7459 43.4104 19.7558C43.213 19.7748 43.2625 19.5253 43.1212 19.45C42.9672 19.3682 43.0826 19.2884 43.1663 19.2254ZM36.7952 22.0187C36.9553 21.977 37.0878 22.0579 37.1965 22.1425C37.6316 22.4823 38.132 22.7129 38.6033 22.9922C38.7348 23.0701 38.9153 23.099 39.0221 23.3564C38.1065 23.0783 37.3855 22.6518 36.7967 22.0044C36.5968 21.9006 36.4089 21.7881 36.413 21.5229C36.4138 21.473 36.3927 21.4151 36.4525 21.3883C36.5351 21.3513 36.5758 21.4123 36.599 21.4728C36.6681 21.6532 36.7303 21.8365 36.7952 22.0187ZM41.8533 19.1681C41.8554 19.0899 41.8344 19.013 41.7929 18.9468C41.7515 18.8806 41.6913 18.8281 41.6198 18.7956C41.4764 18.7216 41.3433 18.6297 41.2236 18.5222C40.9675 18.2807 40.5714 17.9192 40.3619 17.782C39.9863 17.536 39.5836 17.3329 39.2119 17.0864C38.7316 16.7679 38.2063 16.5602 37.6993 16.5889C37.6865 16.5916 37.6733 16.591 37.6608 16.5871C37.6484 16.5832 37.6372 16.5762 37.6284 16.5668C37.6195 16.5573 37.6133 16.5458 37.6103 16.5332C37.6073 16.5206 37.6077 16.5075 37.6113 16.495C37.6334 16.3261 38.0513 16.0668 38.124 16.18C38.2838 16.429 38.5352 16.3836 38.7479 16.4731C39.728 16.8877 40.632 17.4584 41.4244 18.1627C41.6762 18.3843 41.817 18.7526 42.2111 18.8498C42.3944 18.895 42.3238 19.0548 42.1514 19.1159C42.3639 19.2825 42.4324 19.5757 42.7594 19.668C42.898 19.7072 43.1325 19.9597 43.0992 20.2118C43.0901 20.2793 42.8536 20.1629 42.756 20.2914C42.6501 20.1181 42.5577 20.2 42.5175 20.3271C42.4788 20.4491 42.5263 20.557 42.6866 20.5701C42.7801 20.5777 42.9022 20.6044 42.8999 20.7056C42.8908 21.0955 43.1743 21.2939 43.4086 21.5267C43.5447 21.6619 43.4882 22.1093 43.2977 22.1517C43.0582 22.2049 42.9761 22.3386 42.9375 22.5701C42.8628 22.3976 42.9616 22.1464 42.6612 22.1504C42.4174 22.1537 42.3208 22.2947 42.3012 22.4811C42.1504 22.4879 42.0995 22.3736 41.9903 22.2986C42.04 22.446 42.1024 22.5635 41.9823 22.6826C41.8994 22.6396 41.9166 22.5001 41.7873 22.5103C41.4949 22.5335 41.2057 22.5451 40.9827 22.2955C40.9318 22.2386 40.852 22.3011 40.8275 22.3618C40.6825 22.7202 40.5488 22.4953 40.4183 22.3586C40.3297 22.2637 40.2226 22.1876 40.1032 22.135C39.1007 21.6882 38.1914 21.0614 37.4209 20.286C37.3822 20.2509 37.3535 20.2063 37.3376 20.1567C37.3217 20.1071 37.3191 20.0541 37.3301 20.0029C37.357 19.897 37.3156 19.8451 37.2559 19.7659C36.9562 19.3695 36.816 18.8982 36.7338 18.4214C36.6957 18.2015 36.6189 18.0695 36.4192 17.9726C36.4693 17.874 36.6442 17.9322 36.6455 17.754C36.6517 16.8903 36.9575 16.6673 37.7906 16.8639C38.6336 17.0628 39.3721 17.4831 40.0645 17.9626C40.3932 18.1901 40.7469 18.3992 41.0274 18.734C41.2152 18.9583 41.4296 19.3025 41.8107 19.3532C41.8439 19.2957 41.9148 19.2465 41.8533 19.1681ZM46.2887 26.11C46.2029 26.3733 46.028 26.1065 45.8631 26.1938C45.6869 26.2872 45.8749 25.6802 45.4627 25.7561C45.4411 25.76 45.4585 25.6671 45.4868 25.6211C45.6519 25.3528 45.8206 25.5223 45.9824 25.6163C46.1231 25.6981 46.2263 25.8532 46.4353 25.7653C46.5384 25.7219 46.4851 25.4638 46.659 25.5847C46.7791 25.6682 46.5864 25.7882 46.6051 25.8992C46.656 26.2022 46.3724 26.0243 46.2887 26.11ZM43.6973 20.3265C43.6629 20.6233 43.7389 20.9055 43.6819 21.1808C43.6615 21.2798 43.6455 21.3682 43.5128 21.326C43.1731 21.2174 43.1081 20.9393 43.3592 20.6838C43.474 20.5668 43.5848 20.4457 43.6973 20.3265ZM38.0634 21.1631C38.4636 21.5416 39.0654 21.6862 39.3768 22.1706C38.917 21.8605 38.4189 21.5991 38.0634 21.1631ZM36.5082 20.102C36.5917 20.1129 36.6649 19.9423 36.7402 20.0707C36.8143 20.1972 36.6616 20.2722 36.5832 20.2847C36.4232 20.3103 36.295 20.3428 36.1772 20.474C36.1069 20.5522 35.9858 20.4417 35.898 20.401C35.8604 20.3837 35.8387 20.2861 35.8466 20.2299C35.867 20.0871 35.9976 20.1777 36.0735 20.1427C36.2119 20.0783 36.3713 20.289 36.5082 20.102ZM45.6509 23.1999C45.4026 23.3365 45.8143 23.6072 45.5651 23.6846C45.3158 23.7621 45.2389 23.4293 45.1652 23.2922C45.0053 22.9942 45.4391 23.4003 45.4177 23.1401C45.4156 23.1154 45.5721 23.086 45.6509 23.1999ZM55.6828 21.2724C55.5916 21.4715 55.8837 21.3188 55.7957 21.4644C55.7466 21.5458 55.6404 21.5196 55.5844 21.4087C55.5351 21.3113 55.4317 21.2824 55.3277 21.2495C55.2131 21.2133 55.2709 21.0946 55.2625 21.0114C55.2612 20.9992 55.3468 20.9639 55.3489 20.967C55.4727 21.1582 55.7364 21.0451 55.872 21.2023C55.8829 21.2149 55.8752 21.2432 55.8766 21.2757L55.6828 21.2724ZM53.7825 19.874C54.3599 20.1612 54.4067 20.1973 54.5095 20.4349C54.1931 20.3174 53.8618 20.0619 53.7825 19.874ZM40.6963 23.8914C40.5756 23.9371 40.7275 23.459 40.4779 23.7986C40.3951 23.9112 40.388 23.7924 40.3502 23.7694C40.2527 23.7106 40.3262 23.6416 40.3682 23.6238C40.507 23.5649 40.687 23.4805 40.7979 23.5842C40.9102 23.6893 40.761 23.8039 40.6963 23.8914ZM52.4577 18.1684C52.7844 18.2524 52.9947 18.3792 53.1687 18.5693C52.9174 18.5125 52.6404 18.5055 52.4577 18.1684ZM46.3186 24.7505C46.2541 24.9018 46.4869 25.0939 46.2502 25.2086C46.1753 25.245 46.101 25.2052 46.0665 25.1194C45.98 24.9045 46.1687 24.8438 46.3186 24.7505ZM44.0354 21.2698C43.9699 21.4676 44.1122 21.7795 43.6186 21.8152C43.8669 21.6382 43.7297 21.3291 44.0354 21.2698Z" fill="#F3F7ED"/>
</g>
<defs>
<clipPath id="clip0_73_567">
<rect width="54" height="40" fill="white" transform="matrix(0.92679 -0.375579 -0.375579 -0.92679 31.4883 57.3528)"/>
</clipPath>
</defs>
</svg>
