<svg width="175" height="50" viewBox="0 0 175 50" fill="none" xmlns="http://www.w3.org/2000/svg">
<g clip-path="url(#clip0_65_774)">
<mask id="path-1-inside-1_65_774" fill="white">
<path d="M37.8136 26.5035C37.8136 24.1641 37.3529 21.8477 36.4576 19.6864C35.5624 17.5252 34.2502 15.5614 32.5961 13.9072C30.9419 12.2531 28.9781 10.9409 26.8169 10.0457C24.6556 9.15046 22.3392 8.6897 19.9998 8.6897C17.6605 8.6897 15.3441 9.15046 13.1828 10.0457C11.0215 10.9409 9.05774 12.2531 7.40357 13.9072C5.74941 15.5614 4.43726 17.5252 3.54203 19.6864C2.6468 21.8477 2.18603 24.1642 2.18604 26.5035L19.9998 26.5035H37.8136Z"/>
</mask>
<path d="M37.8136 26.5035C37.8136 24.1641 37.3529 21.8477 36.4576 19.6864C35.5624 17.5252 34.2502 15.5614 32.5961 13.9072C30.9419 12.2531 28.9781 10.9409 26.8169 10.0457C24.6556 9.15046 22.3392 8.6897 19.9998 8.6897C17.6605 8.6897 15.3441 9.15046 13.1828 10.0457C11.0215 10.9409 9.05774 12.2531 7.40357 13.9072C5.74941 15.5614 4.43726 17.5252 3.54203 19.6864C2.6468 21.8477 2.18603 24.1642 2.18604 26.5035L19.9998 26.5035H37.8136Z" fill="white" stroke="#5CB165" stroke-width="2.89655" mask="url(#path-1-inside-1_65_774)"/>
<path d="M39 20.2241H39.7241V19.5V14.9345C39.7241 14.2946 39.2054 13.7759 38.5655 13.7759H1.43448C0.794594 13.7759 0.275862 14.2946 0.275862 14.9345V19.5V20.2241H1H39Z" fill="white" stroke="#5CB165" stroke-width="1.44828"/>
<mask id="path-3-inside-2_65_774" fill="white">
<path d="M8.41357 34.0344H31.586V41.5655C31.586 41.8054 31.3915 41.9999 31.1515 41.9999H8.84806C8.6081 41.9999 8.41357 41.8054 8.41357 41.5655V34.0344Z"/>
</mask>
<path d="M8.41357 34.0344H31.586V41.5655C31.586 41.8054 31.3915 41.9999 31.1515 41.9999H8.84806C8.6081 41.9999 8.41357 41.8054 8.41357 41.5655V34.0344Z" fill="white" stroke="#5CB165" stroke-width="2.89655" mask="url(#path-3-inside-2_65_774)"/>
<mask id="path-4-inside-3_65_774" fill="white">
<path d="M39.5517 19.5517C39.5517 22.1193 39.046 24.6617 38.0634 27.0338C37.0808 29.406 35.6407 31.5613 33.8251 33.3769C32.0096 35.1924 29.8542 36.6326 27.4821 37.6152C25.11 38.5977 22.5675 39.1034 20 39.1034C17.4324 39.1034 14.89 38.5977 12.5178 37.6152C10.1457 36.6326 7.99035 35.1924 6.17481 33.3769C4.35926 31.5613 2.91909 29.406 1.93653 27.0338C0.953962 24.6617 0.448242 22.1193 0.448242 19.5517L20 19.5517H39.5517Z"/>
</mask>
<path d="M39.5517 19.5517C39.5517 22.1193 39.046 24.6617 38.0634 27.0338C37.0808 29.406 35.6407 31.5613 33.8251 33.3769C32.0096 35.1924 29.8542 36.6326 27.4821 37.6152C25.11 38.5977 22.5675 39.1034 20 39.1034C17.4324 39.1034 14.89 38.5977 12.5178 37.6152C10.1457 36.6326 7.99035 35.1924 6.17481 33.3769C4.35926 31.5613 2.91909 29.406 1.93653 27.0338C0.953962 24.6617 0.448242 22.1193 0.448242 19.5517L20 19.5517H39.5517Z" fill="white" stroke="#5CB165" stroke-width="2.89655" mask="url(#path-4-inside-3_65_774)"/>
<path d="M28.1707 8.25513C27.0595 7.18086 27.095 6.48182 28.1707 4.99651C29.2019 3.84251 28.9515 3.09988 28.1707 1.73789" stroke="#5CB165" stroke-width="1.44828"/>
<path d="M20.1502 6.9519C19.039 5.87764 19.0745 5.1786 20.1502 3.69328C21.1814 2.53929 20.931 1.79666 20.1502 0.434663" stroke="#5CB165" stroke-width="1.44828"/>
<path d="M12.1307 8.25513C11.0194 7.18086 11.055 6.48182 12.1307 4.99651C13.1619 3.84251 12.9114 3.09988 12.1307 1.73789" stroke="#5CB165" stroke-width="1.44828"/>
</g>
<path d="M54.2 42V9H65.85C69.4833 9 72.1833 9.76667 73.95 11.3C75.7167 12.8 76.6 14.95 76.6 17.75C76.6 19.65 76.0833 21.2833 75.05 22.65C74.0167 23.9833 72.5167 24.85 70.55 25.25V25.3C72.6833 25.6333 74.3667 26.5167 75.6 27.95C76.8667 29.35 77.5 31.0833 77.5 33.15C77.5 35.9167 76.5 38.0833 74.5 39.65C72.5 41.2167 69.6167 42 65.85 42H54.2ZM56.7 39.7H66.35C69.1833 39.7 71.3 39.1333 72.7 38C74.1333 36.8667 74.85 35.2333 74.85 33.1C74.85 30.9333 74.1333 29.3 72.7 28.2C71.3 27.0667 69.1833 26.5 66.35 26.5H56.7V39.7ZM56.7 24.2H65.9C71.2667 24.2 73.95 22.05 73.95 17.75C73.95 13.45 71.2667 11.3 65.9 11.3H56.7V24.2ZM95.2418 16.5C97.5751 16.5 99.6251 17.0167 101.392 18.05C103.192 19.0833 104.592 20.5833 105.592 22.55C106.625 24.4833 107.142 26.8 107.142 29.5C107.142 32.2 106.625 34.5333 105.592 36.5C104.592 38.4333 103.192 39.9167 101.392 40.95C99.6251 41.9833 97.5751 42.5 95.2418 42.5C92.9085 42.5 90.8418 41.9833 89.0418 40.95C87.2751 39.9167 85.8751 38.4333 84.8418 36.5C83.8418 34.5333 83.3418 32.2 83.3418 29.5C83.3418 26.8 83.8418 24.4833 84.8418 22.55C85.8751 20.5833 87.2751 19.0833 89.0418 18.05C90.8418 17.0167 92.9085 16.5 95.2418 16.5ZM95.2418 18.65C93.3418 18.65 91.6918 19.0833 90.2918 19.95C88.8918 20.8167 87.7918 22.0667 86.9918 23.7C86.2251 25.3 85.8418 27.2333 85.8418 29.5C85.8418 31.7333 86.2251 33.6667 86.9918 35.3C87.7918 36.9333 88.8918 38.1833 90.2918 39.05C91.6918 39.9167 93.3418 40.35 95.2418 40.35C97.1418 40.35 98.7918 39.9167 100.192 39.05C101.592 38.1833 102.675 36.9333 103.442 35.3C104.242 33.6667 104.642 31.7333 104.642 29.5C104.642 27.2333 104.242 25.3 103.442 23.7C102.675 22.0667 101.592 20.8167 100.192 19.95C98.7918 19.0833 97.1418 18.65 95.2418 18.65ZM145.505 17H148.255L139.755 42H137.255L129.355 20.25L121.605 42H119.105L110.605 17H113.355L120.405 39L128.155 17H130.705L138.505 39L145.505 17ZM156.385 5.5V36.1C156.385 37.6333 156.651 38.7167 157.185 39.35C157.718 39.9833 158.551 40.3 159.685 40.3C160.385 40.3 160.935 40.25 161.335 40.15C161.768 40.05 162.268 39.8833 162.835 39.65L162.485 41.85C162.051 42.05 161.551 42.2 160.985 42.3C160.451 42.4333 159.851 42.5 159.185 42.5C157.418 42.5 156.085 42 155.185 41C154.318 39.9667 153.885 38.3667 153.885 36.2V5.5H156.385ZM168.855 37.9C169.522 37.9 170.055 38.1167 170.455 38.55C170.889 38.95 171.105 39.4833 171.105 40.15C171.105 40.8167 170.889 41.3667 170.455 41.8C170.055 42.2 169.522 42.4 168.855 42.4C168.189 42.4 167.639 42.2 167.205 41.8C166.805 41.3667 166.605 40.8167 166.605 40.15C166.605 39.4833 166.805 38.95 167.205 38.55C167.639 38.1167 168.189 37.9 168.855 37.9Z" fill="#5CB165"/>
<defs>
<clipPath id="clip0_65_774">
<rect width="41" height="42" fill="white"/>
</clipPath>
</defs>
</svg>
