<svg width="48" height="46" viewBox="0 0 48 46" fill="none" xmlns="http://www.w3.org/2000/svg">
<g filter="url(#filter0_dddd_301_302)">
<path d="M40.3801 25.3799C40.3801 16.3335 33.0465 8.99988 24.0001 8.99988C14.9537 8.99988 7.62012 16.3335 7.62012 25.3799C14.6635 25.3799 14.9537 25.3799 24.0001 25.3799C33.0465 25.3799 33.1729 25.3799 40.3801 25.3799Z" fill="url(#paint0_radial_301_302)"/>
<path d="M45 21.18C45 32.7779 35.598 42.18 24 42.18C12.402 42.18 3 32.7779 3 21.18C12.03 21.1799 12.402 21.1799 24 21.1799C35.598 21.1799 35.76 21.18 45 21.18Z" fill="#D9D9D9"/>
<path d="M45 21.18C45 32.7779 35.598 42.18 24 42.18C12.402 42.18 3 32.7779 3 21.18C12.03 21.1799 12.402 21.1799 24 21.1799C35.598 21.1799 35.76 21.18 45 21.18Z" fill="url(#paint1_linear_301_302)"/>
</g>
<defs>
<filter id="filter0_dddd_301_302" x="0.48" y="6.9" width="47.04" height="38.2199" filterUnits="userSpaceOnUse" color-interpolation-filters="sRGB">
<feFlood flood-opacity="0" result="BackgroundImageFix"/>
<feColorMatrix in="SourceAlpha" type="matrix" values="0 0 0 0 0 0 0 0 0 0 0 0 0 0 0 0 0 0 127 0" result="hardAlpha"/>
<feOffset dy="0.42"/>
<feGaussianBlur stdDeviation="1.26"/>
<feComposite in2="hardAlpha" operator="out"/>
<feColorMatrix type="matrix" values="0 0 0 0 0 0 0 0 0 0 0 0 0 0 0 0 0 0 0.15 0"/>
<feBlend mode="normal" in2="BackgroundImageFix" result="effect1_dropShadow_301_302"/>
<feColorMatrix in="SourceAlpha" type="matrix" values="0 0 0 0 0 0 0 0 0 0 0 0 0 0 0 0 0 0 127 0" result="hardAlpha"/>
<feOffset/>
<feGaussianBlur stdDeviation="0.84"/>
<feComposite in2="hardAlpha" operator="out"/>
<feColorMatrix type="matrix" values="0 0 0 0 0 0 0 0 0 0 0 0 0 0 0 0 0 0 0.15 0"/>
<feBlend mode="normal" in2="effect1_dropShadow_301_302" result="effect2_dropShadow_301_302"/>
<feColorMatrix in="SourceAlpha" type="matrix" values="0 0 0 0 0 0 0 0 0 0 0 0 0 0 0 0 0 0 127 0" result="hardAlpha"/>
<feOffset/>
<feGaussianBlur stdDeviation="0.42"/>
<feComposite in2="hardAlpha" operator="out"/>
<feColorMatrix type="matrix" values="0 0 0 0 0 0 0 0 0 0 0 0 0 0 0 0 0 0 0.15 0"/>
<feBlend mode="normal" in2="effect2_dropShadow_301_302" result="effect3_dropShadow_301_302"/>
<feColorMatrix in="SourceAlpha" type="matrix" values="0 0 0 0 0 0 0 0 0 0 0 0 0 0 0 0 0 0 127 0" result="hardAlpha"/>
<feOffset/>
<feGaussianBlur stdDeviation="0.21"/>
<feComposite in2="hardAlpha" operator="out"/>
<feColorMatrix type="matrix" values="0 0 0 0 0 0 0 0 0 0 0 0 0 0 0 0 0 0 0.15 0"/>
<feBlend mode="normal" in2="effect3_dropShadow_301_302" result="effect4_dropShadow_301_302"/>
<feBlend mode="normal" in="SourceGraphic" in2="effect4_dropShadow_301_302" result="shape"/>
</filter>
<radialGradient id="paint0_radial_301_302" cx="0" cy="0" r="1" gradientUnits="userSpaceOnUse" gradientTransform="translate(24.0001 17.1899) rotate(-90) scale(8.19 16.38)">
<stop stop-color="#D9D9D9"/>
<stop offset="1" stop-color="#F3F3F3"/>
</radialGradient>
<linearGradient id="paint1_linear_301_302" x1="3" y1="21.1799" x2="22.406" y2="55.1045" gradientUnits="userSpaceOnUse">
<stop stop-color="#598C4D"/>
<stop offset="1" stop-color="#4D8C6C"/>
</linearGradient>
</defs>
</svg>
