<svg width="18" height="18" viewBox="0 0 18 18" fill="none" xmlns="http://www.w3.org/2000/svg">
<path d="M15.625 0.25H1.875C0.839844 0.25 0 1.08984 0 2.125V15.875C0 16.9102 0.839844 17.75 1.875 17.75H15.625C16.6602 17.75 17.5 16.9102 17.5 15.875V2.125C17.5 1.08984 16.6602 0.25 15.625 0.25ZM10.832 15.2383C10.5039 15.2969 10.3828 15.0938 10.3828 14.9258C10.3828 14.7148 10.3906 13.6367 10.3906 12.7656C10.3906 12.1562 10.1875 11.7695 9.94922 11.5664C11.3945 11.4063 12.918 11.207 12.918 8.71094C12.918 8 12.6641 7.64453 12.25 7.1875C12.3164 7.01953 12.5391 6.32813 12.1836 5.42969C11.6406 5.26172 10.3984 6.12891 10.3984 6.12891C9.88281 5.98437 9.32422 5.91016 8.77344 5.91016C8.22266 5.91016 7.66406 5.98437 7.14844 6.12891C7.14844 6.12891 5.90625 5.26172 5.36328 5.42969C5.00781 6.32422 5.22656 7.01563 5.29688 7.1875C4.88281 7.64453 4.6875 8 4.6875 8.71094C4.6875 11.1953 6.14453 11.4063 7.58984 11.5664C7.40234 11.7344 7.23437 12.0234 7.17578 12.4375C6.80469 12.6055 5.85547 12.8945 5.28906 11.8945C4.93359 11.2773 4.29297 11.2266 4.29297 11.2266C3.66016 11.2187 4.25 11.625 4.25 11.625C4.67188 11.8203 4.96875 12.5703 4.96875 12.5703C5.34766 13.7305 7.16016 13.3398 7.16016 13.3398C7.16016 13.8828 7.16797 14.7656 7.16797 14.9258C7.16797 15.0938 7.05078 15.2969 6.71875 15.2383C4.14062 14.375 2.33594 11.9219 2.33594 9.05469C2.33594 5.46875 5.07812 2.74609 8.66406 2.74609C12.25 2.74609 15.1562 5.46875 15.1562 9.05469C15.1602 11.9219 13.4102 14.3789 10.832 15.2383ZM7 12.8516C6.92578 12.8672 6.85547 12.8359 6.84766 12.7852C6.83984 12.7266 6.89063 12.6758 6.96484 12.6602C7.03906 12.6523 7.10937 12.6836 7.11719 12.7344C7.12891 12.7852 7.07812 12.8359 7 12.8516ZM6.62891 12.8164C6.62891 12.8672 6.57031 12.9102 6.49219 12.9102C6.40625 12.918 6.34766 12.875 6.34766 12.8164C6.34766 12.7656 6.40625 12.7227 6.48438 12.7227C6.55859 12.7148 6.62891 12.7578 6.62891 12.8164ZM6.09375 12.7734C6.07812 12.8242 6 12.8477 5.93359 12.8242C5.85937 12.8086 5.80859 12.75 5.82422 12.6992C5.83984 12.6484 5.91797 12.625 5.98437 12.6406C6.0625 12.6641 6.11328 12.7227 6.09375 12.7734ZM5.61328 12.5625C5.57812 12.6055 5.50391 12.5977 5.44531 12.5391C5.38672 12.4883 5.37109 12.4141 5.41016 12.3789C5.44531 12.3359 5.51953 12.3438 5.57813 12.4023C5.62891 12.4531 5.64844 12.5313 5.61328 12.5625ZM5.25781 12.207C5.22266 12.2305 5.15625 12.207 5.11328 12.1484C5.07031 12.0898 5.07031 12.0234 5.11328 11.9961C5.15625 11.9609 5.22266 11.9883 5.25781 12.0469C5.30078 12.1055 5.30078 12.1758 5.25781 12.207V12.207ZM5.00391 11.8281C4.96875 11.8633 4.91016 11.8437 4.86719 11.8047C4.82422 11.7539 4.81641 11.6953 4.85156 11.668C4.88672 11.6328 4.94531 11.6523 4.98828 11.6914C5.03125 11.7422 5.03906 11.8008 5.00391 11.8281ZM4.74219 11.5391C4.72656 11.5742 4.67578 11.582 4.63281 11.5547C4.58203 11.5312 4.55859 11.4883 4.57422 11.4531C4.58984 11.4297 4.63281 11.418 4.68359 11.4375C4.73438 11.4648 4.75781 11.5078 4.74219 11.5391Z" fill="black"/>
</svg>
