<svg id="Layer_0_Image" data-name="Layer 0 Image" xmlns="http://www.w3.org/2000/svg" viewBox="0 0 800 600" x="0px" y="0px" width="800px" height="600px" xmlns:xlink="http://www.w3.org/1999/xlink" version="1.1"><title>1</title><path d="M379.963,138.125c.3,3.541,2.662,7.958-4.346,5.459-3.725-1.328-5.834,4.779-10.894,5.35-2.716.306-7.151,1.747-10.7,2.915-2.325.766-5.28-.135-6.1,3.316-.252,1.063-.993,1.815-2.027,1.221-5.277-3.031-8.726,1.243-12.5,3.3-15.43,8.4-30.309,17.969-43.313,29.6-18.583,16.619-36.166,34.433-51.027,54.652-.28.38-.423,1.014-.781,1.162-3.352,1.378.59,10.745-7.218,6.92-10.656-5.221-13.093-9.88-9.046-17.8,4.76-9.313,9.943-18.439,15.445-27.336,19.939-32.244,47.818-56.229,80.456-74.622,21.98-12.387,46.214-18.461,71.383-20.255,19.405-1.383,38.83-1.694,57.95,2.786,6.657,1.56,13.56,3.021,19.552,6.087,3.141,1.608,6.387,2.4,9.228,3.746,11.034,5.219,23.71,7.555,32.36,17.543,2.111,2.438,6.515,2.195,9.832,4.423,31.3,21.021,51.023,49.878,56.958,86.885,5.795,36.134,7.153,72.572-1.514,108.694-1.949,8.123-5.761,15.278-9.491,22.709-4.284,8.535-9.877,16.479-12.945,25.647-.657,1.962-1.494,4.207-2.97,5.5-8.858,7.734-15.024,17.829-23.37,26.05A200.332,200.332,0,0,1,494.108,446.5c-8.7,5.734-16.694,12.645-25.108,18.785-10.263,7.49-22.76,11.161-34.807,15.328-11.113,3.845-22.62,5.7-34.147,7.618-1.9.315-3.474,1.431-4.9-.827a2.712,2.712,0,0,0-2.338-1.015c-18.181,6.024-42.372.262-56.994-7.331-18.376-9.541-35.183-21.5-48.539-37.18A107.763,107.763,0,0,1,264.81,397.71c-3.192-12.764-6.779-25.38-8.976-38.4-3.054-18.1,1.845-34.267,10.845-49.515a404.084,404.084,0,0,1,24.977-36.957c8.957-11.94,22.161-16.933,35.225-21.081a142.7,142.7,0,0,1,48.786-6.516,44.254,44.254,0,0,1,29.958,12.588c11.525,11.009,19.861,24.195,26.443,38.6,5.5,12.04,5.727,25.229,8.213,37.916.591,3.016-1.459,5.18-5.089,5.433-3.076.214-5.5,1.508-4.281,5.4.484,0,.715.017.942,0,2.972-.262,3.391-6.233,7.134-3.782,3.389,2.219,2.477,6.325,2.187,9.859-1.219,14.865-6.719,27.857-17.887,37.875-9.254,8.3-17.475,17.556-30.172,21.91-25.635,8.792-38.328,1.339-57.01-15.948-6.139-5.681-7.988-13.706-10.865-21.17-8.574-22.252,8.181-37.181,26.964-37.383-2.03,7.618-12.195,6.064-15.62,13.962,6.4-1.934,10.421-5.681,15.2-7.886,2.126-.982,5.877-3.573,6.719-.9,1,3.174,6.276,4.462,2.635,10.747-3.88,6.7-8.157,13.94-10.262,21.793-1.792,6.686,2.551,11.93,9.219,11.342,18.662-1.645,34.747-9.692,47.723-22.48,8.382-8.26,10.664-20.346,9.731-32.118-.981-12.379-1.549-24.929-6.663-36.656-1.536-3.521-8.718-16.2-11.876-18.561a13.444,13.444,0,0,0-8.329-2.618c-1.612.009-4.269,1.722-4.549-2.267-.134-1.9-3.5-1.962-3.626-.441-.429,5.105-4.358,3.825-6.855,3.974-13.71.818-26.477,5.885-39.742,8.655a15.681,15.681,0,0,0-11.913,10.979,10.711,10.711,0,0,1-4.405,6.236c-10.843,6.6-13.785,18.153-18.924,28.5-3.048,6.136-8.787,10.682-10.914,17.687a67.855,67.855,0,0,0-1.174,34.686c2.786,12.659,5.993,25.369,11.372,37.244,7.781,17.181,22.758,25.691,39.669,31.742,6.544,2.341,14.073.985,20.144,5.952.948.775,6.578-2.3,10.482-2.675,37.052-3.565,70.218-17.584,101.564-37.126,20.143-12.558,35.241-29.627,48.49-48.808,20.119-29.127,26.078-62.261,26.813-96.647a342.124,342.124,0,0,0-2.374-51.772c-3.234-24.708-15.9-42.461-37.779-54.452-10-5.48-20.3-10.534-30.311-15.925-4.036-2.174-10.262-5.311-17.411-3.764-6.211,1.344-13.545-2.188-20.655-2.4-7.647-.225-15.156-3.2-22.975-1.135-2.018.533-2.469-.135-1.356-2.156a1.294,1.294,0,0,0-1.813-1.758c-6.379,5.725-15.488.762-22.368,6.312C385.915,147.15,384.623,139.2,379.963,138.125Zm-31.976-8.912c-20.607-1.815-85.622,45.915-95.036,67.467C280.8,168.783,310.349,143.313,347.987,129.213Zm67.779,325.851c6.006-1.867,12.119-3.448,18-5.651,23.535-8.818,44.19-22.748,64.4-37.291,1.72-1.237,5.82-4.745,2.247-9.237C476.327,427.2,445.866,440.64,415.766,455.064Zm-37.714-64.437c3.033-.935,6.027-2.034,9.106-2.776,9.593-2.31,15.74-10.033,23.666-14.954a3.29,3.29,0,0,0,1.093-4.428c-1.133-1.869-2.552-.538-3.365.512C400.607,379.233,388.762,383.582,378.052,390.627Zm-52.84-128.894c-8.092.7-14.406,4.813-20.007,10.288C312.977,270.706,318.73,265.522,325.212,261.733Zm15.615-109.907c-2.584,0-4.418.094-6.238-.024-2.463-.159-3.861,1.24-4.924,3.142-.454.812-.748,2.113.279,2.4,1.885.526,3.447-.413,4.872-1.79C336.263,154.155,338.947,154.964,340.827,151.826Z"/></svg>