<svg width="179" height="50" viewBox="0 0 179 50" fill="none" xmlns="http://www.w3.org/2000/svg">
<g filter="url(#filter0_dddd_301_284)">
<path d="M40.3801 25.3799C40.3801 16.3335 33.0465 8.99988 24.0001 8.99988C14.9537 8.99988 7.62012 16.3335 7.62012 25.3799C14.6635 25.3799 14.9537 25.3799 24.0001 25.3799C33.0465 25.3799 33.1729 25.3799 40.3801 25.3799Z" fill="url(#paint0_radial_301_284)"/>
<path d="M45 21.18C45 32.7779 35.598 42.18 24 42.18C12.402 42.18 3 32.7779 3 21.18C12.03 21.1799 12.402 21.1799 24 21.1799C35.598 21.1799 35.76 21.18 45 21.18Z" fill="#D9D9D9"/>
<path d="M45 21.18C45 32.7779 35.598 42.18 24 42.18C12.402 42.18 3 32.7779 3 21.18C12.03 21.1799 12.402 21.1799 24 21.1799C35.598 21.1799 35.76 21.18 45 21.18Z" fill="url(#paint1_linear_301_284)"/>
</g>
<path d="M58.2 42V9H69.85C73.4833 9 76.1833 9.76667 77.95 11.3C79.7167 12.8 80.6 14.95 80.6 17.75C80.6 19.65 80.0833 21.2833 79.05 22.65C78.0167 23.9833 76.5167 24.85 74.55 25.25V25.3C76.6833 25.6333 78.3667 26.5167 79.6 27.95C80.8667 29.35 81.5 31.0833 81.5 33.15C81.5 35.9167 80.5 38.0833 78.5 39.65C76.5 41.2167 73.6167 42 69.85 42H58.2ZM60.7 39.7H70.35C73.1833 39.7 75.3 39.1333 76.7 38C78.1333 36.8667 78.85 35.2333 78.85 33.1C78.85 30.9333 78.1333 29.3 76.7 28.2C75.3 27.0667 73.1833 26.5 70.35 26.5H60.7V39.7ZM60.7 24.2H69.9C75.2667 24.2 77.95 22.05 77.95 17.75C77.95 13.45 75.2667 11.3 69.9 11.3H60.7V24.2ZM99.2418 16.5C101.575 16.5 103.625 17.0167 105.392 18.05C107.192 19.0833 108.592 20.5833 109.592 22.55C110.625 24.4833 111.142 26.8 111.142 29.5C111.142 32.2 110.625 34.5333 109.592 36.5C108.592 38.4333 107.192 39.9167 105.392 40.95C103.625 41.9833 101.575 42.5 99.2418 42.5C96.9085 42.5 94.8418 41.9833 93.0418 40.95C91.2751 39.9167 89.8751 38.4333 88.8418 36.5C87.8418 34.5333 87.3418 32.2 87.3418 29.5C87.3418 26.8 87.8418 24.4833 88.8418 22.55C89.8751 20.5833 91.2751 19.0833 93.0418 18.05C94.8418 17.0167 96.9085 16.5 99.2418 16.5ZM99.2418 18.65C97.3418 18.65 95.6918 19.0833 94.2918 19.95C92.8918 20.8167 91.7918 22.0667 90.9918 23.7C90.2251 25.3 89.8418 27.2333 89.8418 29.5C89.8418 31.7333 90.2251 33.6667 90.9918 35.3C91.7918 36.9333 92.8918 38.1833 94.2918 39.05C95.6918 39.9167 97.3418 40.35 99.2418 40.35C101.142 40.35 102.792 39.9167 104.192 39.05C105.592 38.1833 106.675 36.9333 107.442 35.3C108.242 33.6667 108.642 31.7333 108.642 29.5C108.642 27.2333 108.242 25.3 107.442 23.7C106.675 22.0667 105.592 20.8167 104.192 19.95C102.792 19.0833 101.142 18.65 99.2418 18.65ZM149.505 17H152.255L143.755 42H141.255L133.355 20.25L125.605 42H123.105L114.605 17H117.355L124.405 39L132.155 17H134.705L142.505 39L149.505 17ZM160.385 5.5V36.1C160.385 37.6333 160.651 38.7167 161.185 39.35C161.718 39.9833 162.551 40.3 163.685 40.3C164.385 40.3 164.935 40.25 165.335 40.15C165.768 40.05 166.268 39.8833 166.835 39.65L166.485 41.85C166.051 42.05 165.551 42.2 164.985 42.3C164.451 42.4333 163.851 42.5 163.185 42.5C161.418 42.5 160.085 42 159.185 41C158.318 39.9667 157.885 38.3667 157.885 36.2V5.5H160.385ZM172.855 37.9C173.522 37.9 174.055 38.1167 174.455 38.55C174.889 38.95 175.105 39.4833 175.105 40.15C175.105 40.8167 174.889 41.3667 174.455 41.8C174.055 42.2 173.522 42.4 172.855 42.4C172.189 42.4 171.639 42.2 171.205 41.8C170.805 41.3667 170.605 40.8167 170.605 40.15C170.605 39.4833 170.805 38.95 171.205 38.55C171.639 38.1167 172.189 37.9 172.855 37.9Z" fill="#5CB165"/>
<defs>
<filter id="filter0_dddd_301_284" x="0.48" y="6.9" width="47.04" height="38.2199" filterUnits="userSpaceOnUse" color-interpolation-filters="sRGB">
<feFlood flood-opacity="0" result="BackgroundImageFix"/>
<feColorMatrix in="SourceAlpha" type="matrix" values="0 0 0 0 0 0 0 0 0 0 0 0 0 0 0 0 0 0 127 0" result="hardAlpha"/>
<feOffset dy="0.42"/>
<feGaussianBlur stdDeviation="1.26"/>
<feComposite in2="hardAlpha" operator="out"/>
<feColorMatrix type="matrix" values="0 0 0 0 0 0 0 0 0 0 0 0 0 0 0 0 0 0 0.15 0"/>
<feBlend mode="normal" in2="BackgroundImageFix" result="effect1_dropShadow_301_284"/>
<feColorMatrix in="SourceAlpha" type="matrix" values="0 0 0 0 0 0 0 0 0 0 0 0 0 0 0 0 0 0 127 0" result="hardAlpha"/>
<feOffset/>
<feGaussianBlur stdDeviation="0.84"/>
<feComposite in2="hardAlpha" operator="out"/>
<feColorMatrix type="matrix" values="0 0 0 0 0 0 0 0 0 0 0 0 0 0 0 0 0 0 0.15 0"/>
<feBlend mode="normal" in2="effect1_dropShadow_301_284" result="effect2_dropShadow_301_284"/>
<feColorMatrix in="SourceAlpha" type="matrix" values="0 0 0 0 0 0 0 0 0 0 0 0 0 0 0 0 0 0 127 0" result="hardAlpha"/>
<feOffset/>
<feGaussianBlur stdDeviation="0.42"/>
<feComposite in2="hardAlpha" operator="out"/>
<feColorMatrix type="matrix" values="0 0 0 0 0 0 0 0 0 0 0 0 0 0 0 0 0 0 0.15 0"/>
<feBlend mode="normal" in2="effect2_dropShadow_301_284" result="effect3_dropShadow_301_284"/>
<feColorMatrix in="SourceAlpha" type="matrix" values="0 0 0 0 0 0 0 0 0 0 0 0 0 0 0 0 0 0 127 0" result="hardAlpha"/>
<feOffset/>
<feGaussianBlur stdDeviation="0.21"/>
<feComposite in2="hardAlpha" operator="out"/>
<feColorMatrix type="matrix" values="0 0 0 0 0 0 0 0 0 0 0 0 0 0 0 0 0 0 0.15 0"/>
<feBlend mode="normal" in2="effect3_dropShadow_301_284" result="effect4_dropShadow_301_284"/>
<feBlend mode="normal" in="SourceGraphic" in2="effect4_dropShadow_301_284" result="shape"/>
</filter>
<radialGradient id="paint0_radial_301_284" cx="0" cy="0" r="1" gradientUnits="userSpaceOnUse" gradientTransform="translate(24.0001 17.1899) rotate(-90) scale(8.19 16.38)">
<stop stop-color="#D9D9D9"/>
<stop offset="1" stop-color="#F3F3F3"/>
</radialGradient>
<linearGradient id="paint1_linear_301_284" x1="3" y1="21.1799" x2="22.406" y2="55.1045" gradientUnits="userSpaceOnUse">
<stop stop-color="#598C4D"/>
<stop offset="1" stop-color="#4D8C6C"/>
</linearGradient>
</defs>
</svg>
